<svg id="biontech" width="129" height="15" viewBox="0 0 129 15" fill="none" xmlns="http://www.w3.org/2000/svg">
  <title>BioNTech Logo</title>
  <path d="M20.2011 14.5802H22.3263V0.601654H20.2011V14.5802V14.5802ZM33.7262 0.601654H32.9417C30.2028 0.601654 28.1668 1.17905 26.8911 2.31874C25.6199 3.4554 24.976 5.2526 24.976 7.66196C24.976 8.91048 25.1332 9.98819 25.443 10.8618C25.7499 11.7279 26.229 12.4444 26.8639 12.9916C27.5017 13.5387 28.327 13.9453 29.3156 14.1978C30.3132 14.4517 31.5254 14.5817 32.9175 14.5817H33.7488C35.1243 14.5817 36.332 14.4532 37.3387 14.1978C38.3348 13.9453 39.1631 13.5403 39.801 12.9916C40.4373 12.4444 40.9149 11.7279 41.2233 10.8618C41.5332 9.98668 41.6904 8.90897 41.6904 7.66196C41.6904 5.2526 41.0419 3.4554 39.7632 2.31874C38.4799 1.17905 36.4484 0.601654 33.7247 0.601654H33.7262ZM38.1277 11.3047C37.1951 12.0832 35.6911 12.4777 33.6551 12.4777H33.0127C30.9767 12.4777 29.4712 12.0786 28.5401 11.2926C27.6015 10.5021 27.1254 9.27173 27.1254 7.63778C27.1254 6.00382 27.6045 4.78101 28.5507 3.94967C29.4909 3.12287 31.0009 2.70418 33.0384 2.70418H33.7292C35.7183 2.7208 37.1996 3.15159 38.1322 3.98595C39.0694 4.82484 39.544 6.06126 39.544 7.66196C39.544 9.26266 39.0679 10.5218 38.1292 11.3047H38.1277ZM126.004 0.601654V6.55099L111.616 6.5389V14.5802H113.741V8.65352H126.004V14.5802H128.14V0.601654H126.004ZM77.991 2.70418H89.7385V0.601654H77.991V2.70418ZM94.329 2.31723C93.0578 3.45389 92.4139 5.25109 92.4139 7.66045C92.4139 8.90897 92.5711 9.98517 92.881 10.8603C93.1878 11.7264 93.6655 12.4429 94.3018 12.9901C94.9397 13.5372 95.765 13.9438 96.7535 14.1963C97.7526 14.4502 98.9633 14.5802 100.355 14.5802H108.939V12.4777H100.451C98.4147 12.4777 96.9092 12.0786 95.9766 11.2926C95.0379 10.5021 94.5618 9.27173 94.5618 7.63778C94.5618 6.00382 95.041 4.78101 95.9872 3.94967C96.9273 3.12287 98.4373 2.70418 100.475 2.70418H108.939V0.601654H100.38C97.6408 0.601654 95.6048 1.17905 94.329 2.31874V2.31723ZM73.1889 8.64143H89.737V6.5389H73.1889V8.64143ZM73.1889 14.5787H89.737V12.4762H73.1889V14.5787ZM16.5674 1.60682C16.25 1.29998 15.8373 1.0536 15.3446 0.872217C14.8473 0.690835 14.2518 0.598633 13.5746 0.598633H0.976074V2.70116H13.5746C14.1308 2.70116 14.5798 2.85986 14.9062 3.17426C15.2327 3.49017 15.399 3.97083 15.399 4.60114C15.399 5.23144 15.2342 5.71815 14.9078 6.04917C14.5813 6.38019 14.1323 6.54797 13.5746 6.54797H3.10127V6.53588H0.976074V14.5772H13.5746C14.2684 14.5772 14.8715 14.485 15.3688 14.3036C15.8645 14.1222 16.2757 13.8743 16.5916 13.569C16.9075 13.2637 17.1448 12.9009 17.2944 12.4913C17.4471 12.0771 17.5242 11.6206 17.5242 11.1385V9.93982C17.5242 8.52504 15.8615 7.63476 15.2191 7.63476C15.1934 7.63476 15.1723 7.61359 15.1723 7.5879C15.1723 7.5622 15.1934 7.54104 15.2191 7.54104C15.8615 7.54104 17.5242 6.65076 17.5242 5.23597V4.03734C17.5242 3.57028 17.4441 3.11834 17.2839 2.69813C17.1251 2.28095 16.8848 1.91365 16.5674 1.60682V1.60682ZM15.399 10.5747C15.399 11.205 15.2327 11.6856 14.9062 12.0015C14.5798 12.3159 14.1323 12.4746 13.5746 12.4746H3.93563V12.4867H3.10127V8.63992H3.93563V8.65201H13.8255C14.87 8.75479 15.399 9.40172 15.399 10.5747V10.5747Z" fill="#009B77"/>
  <path d="M58.7896 2.70384H65.9889V14.5799H68.1141V2.70384H75.315V0.601318H58.7896V2.70384Z" fill="#C0DF16"/>
  <path d="M58.7916 11.5674L46.5906 0.601318H44.3672V14.5799H46.4924V3.47321L58.8642 14.5799H60.9153V5.38074H58.7916V11.5674Z" fill="#C0DF16"/>
</svg>
