<svg width="84" height="34" viewBox="0 0 84 34" fill="none" xmlns="http://www.w3.org/2000/svg">
  <title>Pfizer Logo</title>
  <path d="M69.4414 23.2078C67.9011 23.2275 67.0804 22.248 67.0804 20.5068C67.0804 20.3919 67.0834 20.2785 67.0894 20.1667H73.1416C73.261 19.7072 73.3411 19.2068 73.3411 18.7458C73.3411 16.6252 72.0412 15.0048 69.3809 15.0048C66.7206 15.0048 64.2402 17.6847 64.2402 20.5052C64.2402 23.3257 66.0012 24.8463 68.9411 24.8463C70.241 24.8463 71.5212 24.4065 72.4221 23.7263L71.8613 22.3266C71.1615 22.8662 70.3014 23.1867 69.4414 23.2063V23.2078ZM69.4217 16.5269C70.3226 16.5269 70.7821 17.1073 70.7821 18.3876C70.7821 18.5085 70.7745 18.6355 70.7609 18.767H67.3086C67.6835 17.4202 68.4861 16.5269 69.4232 16.5269H69.4217Z" fill="#0000C9"/>
  <path d="M45.4777 14.4088C45.4777 12.208 43.7576 10.6088 41.1578 10.6088H36.1169L32.3169 24.6115H35.4971L36.8983 19.4512H39.6583C42.8189 19.4512 45.4792 17.4107 45.4792 14.4103L45.4777 14.4088ZM38.437 17.8097H37.3427L38.8527 12.2488H39.9984C41.4465 12.2488 42.2582 13.2283 42.2582 14.5297C42.2582 16.6096 40.6257 17.8097 38.437 17.8097Z" fill="#0000C9"/>
  <path d="M49.6225 15.2685L49.9792 13.9685C50.159 13.2884 50.4598 12.129 50.88 10.7883C51.3199 9.40829 52.1195 8.54824 53.2002 8.54824C53.7202 8.54824 54.0406 8.78857 54.0406 9.18761C54.021 9.62746 53.6612 9.88745 53.6612 10.5873C53.6612 11.408 54.3611 12.0474 55.2619 12.0474C56.382 12.0474 57.2828 11.1465 57.2828 10.0477C57.2828 8.34721 55.8227 7.22717 53.6023 7.22717C50.3419 7.22717 48.2016 9.30702 46.8609 14.1681L41.4194 33.9508H44.4999L49.2023 16.8087H52.4067L50.3011 24.6096H53.3816L55.9013 15.2685H49.624H49.6225Z" fill="#0000C9"/>
  <path d="M65.2209 15.2688H57.0587L56.6596 16.809H60.6092L54.4785 24.61H63.1199L63.5204 23.0697H59.0735L65.2209 15.2688Z" fill="#0000C9"/>
  <path d="M81.382 15.1082C80.2786 15.1082 79.1027 15.8216 78.1822 17.3029L78.7218 15.2669H75.6413L73.1216 24.6081H76.2021L77.3418 20.4076C77.8013 18.6875 78.9213 17.0067 79.6619 17.0067C80.4615 17.0067 80.1622 18.5076 81.5423 18.5076C82.5429 18.5076 83.143 17.5871 83.143 16.7467C83.143 15.7672 82.363 15.1067 81.382 15.1067V15.1082Z" fill="#0000C9"/>
  <path d="M0.222168 18.3582C1.22582 15.4787 6.93785 14.265 15.2709 15.2686L16.8852 9.33592C8.63982 8.28844 2.61944 9.46742 1.61579 13.219L0.222168 18.3582Z" fill="#0095FF"/>
  <path d="M30.3167 12.1861C29.3131 15.0655 23.6025 16.2732 15.271 15.2696L13.6567 21.2023C21.9021 22.2498 27.9225 21.0708 28.9261 17.3192L30.3167 12.1861Z" fill="#0000C9"/>
  <path d="M5.49854 5.93271C17.6708 6.80486 30.1046 12.8252 28.9271 17.319L30.0184 13.3059C30.3676 12.0408 30.5414 11.3863 30.5414 10.8633C30.5414 6.28187 18.5445 0.698322 7.11284 0L5.49854 5.93271Z" fill="#0095FF"/>
  <path d="M25.0429 24.6054C12.8706 23.7332 0.436829 17.7129 1.6143 13.2191L0.522986 17.2322C0.173825 18.4973 0 19.1518 0 19.6748C0 24.2562 11.9969 29.8398 23.4286 30.5381L25.0429 24.6054Z" fill="#0000C9"/>
</svg>
